<svg version="1.1" id="Layer_1" xmlns="http://www.w3.org/2000/svg" xmlns:xlink="http://www.w3.org/1999/xlink" x="0px" y="0px"
	 width="100%" viewBox="0 0 202 210" enable-background="new 0 0 202 210" xml:space="preserve">
<path fill="#F8F9FA" opacity="1.000000" stroke="none" 
	d="
M203.000000,155.000000 
	C203.000000,173.641434 203.000000,192.282867 203.000000,210.962158 
	C135.782944,210.962158 68.565857,210.962158 1.000000,210.962158 
	C1.000000,189.313690 1.000000,167.625504 1.241967,145.563660 
	C1.926703,145.462570 2.369473,145.735138 2.873079,146.435455 
	C4.403122,151.706787 5.872329,156.550385 7.362545,161.485519 
	C7.383554,161.577057 7.477109,161.739914 7.606942,161.981628 
	C8.296392,162.943481 8.856010,163.663605 9.461987,164.411987 
	C9.508346,164.440247 9.560420,164.535507 9.634880,164.718536 
	C9.853864,165.132233 10.050822,165.302048 10.357791,165.504883 
	C10.415364,165.598724 10.597887,165.721848 10.675894,165.872742 
	C10.892549,166.212570 11.072908,166.344482 11.356483,166.509857 
	C11.417988,166.600372 11.604041,166.715622 11.707348,166.881119 
	C11.984173,167.253723 12.202346,167.388596 12.511436,167.456604 
	C12.557700,167.461975 12.588587,167.549850 12.716802,167.752991 
	C13.077637,168.199219 13.361324,168.337830 13.725800,168.195282 
	C13.755520,168.018646 13.662819,168.364868 13.805298,168.624283 
	C14.607098,169.294693 15.266418,169.705688 15.950889,170.068298 
	C15.976038,170.019928 15.887928,170.084183 16.065407,170.383057 
	C20.699051,172.333328 25.038912,174.723572 29.640997,175.448013 
	C35.317554,176.341614 41.212311,175.849106 47.006035,175.979218 
	C46.999294,176.002838 47.045357,175.985794 47.067814,176.454712 
	C47.075657,180.409149 46.940002,183.899353 47.074783,187.379089 
	C47.277153,192.603897 47.669113,197.821350 47.985470,203.371277 
	C48.623119,204.522369 49.255756,205.344116 49.903801,206.117981 
	C49.919212,206.070084 49.818607,206.069260 49.911026,206.335480 
	C50.315552,206.792313 50.627655,206.982910 50.937569,207.122589 
	C50.935379,207.071686 50.838360,207.102905 50.964420,207.372040 
	C51.724762,208.039658 52.359043,208.438126 53.443008,208.926483 
	C59.917709,210.191269 65.129684,208.262650 69.942291,204.811020 
	C82.269920,195.969543 94.513252,187.005859 106.998650,178.393082 
	C109.378723,176.751236 112.690933,175.809860 115.613228,175.709045 
	C136.719376,174.980835 157.836807,174.587418 178.948608,174.012238 
	C188.433014,173.753845 200.231903,163.859955 200.923920,154.647141 
	C201.240387,153.694855 201.460007,153.067520 201.772797,152.800110 
	C202.243988,153.773346 202.621994,154.386673 203.000000,155.000000 
z"/>
<path fill="#F6F8FA" opacity="1.000000" stroke="none" 
	d="
M1.000000,36.000000 
	C1.000000,24.420561 1.000000,12.841120 1.000000,1.000000 
	C8.685566,1.000000 16.374090,1.000000 24.532501,1.327565 
	C25.295204,2.425988 25.588022,3.196846 25.635180,4.214323 
	C17.598288,6.829089 11.722070,11.754269 6.671147,18.325146 
	C5.128365,22.943666 3.920532,27.465714 2.511392,32.244541 
	C1.873390,33.667549 1.436695,34.833775 1.000000,36.000000 
z"/>
<path fill="#F7F9FA" opacity="1.000000" stroke="none" 
	d="
M183.000000,1.000002 
	C189.631744,1.000000 196.263504,1.000000 203.000000,1.000000 
	C203.000000,22.020790 203.000000,43.041737 202.791809,64.523918 
	C202.583618,64.985153 202.166977,64.988968 202.099365,64.556992 
	C201.967834,62.088345 201.903915,60.051678 201.914444,57.550686 
	C201.982025,49.325424 202.407211,41.530994 201.808990,33.815914 
	C201.440231,29.060265 199.510330,24.425667 198.250931,19.794022 
	C198.220505,19.851322 198.349548,19.837788 198.285477,19.532824 
	C197.865280,18.751747 197.509140,18.275635 197.134583,17.848621 
	C197.116150,17.897724 197.220840,17.891130 197.119202,17.631952 
	C196.689972,17.209061 196.362381,17.045349 196.034760,16.927563 
	C196.034729,16.973490 196.125793,16.961395 196.069458,16.635895 
	C195.373459,15.491975 194.733810,14.673555 194.080902,13.898384 
	C194.067642,13.941633 194.158096,13.943100 194.062714,13.677327 
	C193.663284,13.200932 193.359253,12.990310 192.990067,12.564508 
	C192.729996,12.088567 192.469742,11.959143 192.024384,11.706423 
	C191.459656,11.127934 191.014725,10.804079 190.520142,10.482500 
	C190.470490,10.484776 190.391022,10.425064 190.254379,10.217188 
	C189.808197,9.893258 189.498642,9.777205 189.166992,9.739902 
	C189.144897,9.818650 189.307175,9.798021 189.190994,9.542048 
	C188.736298,9.135771 188.397781,8.985468 188.059448,8.880682 
	C188.059647,8.926197 188.146545,8.899087 187.992844,8.623242 
	C187.234039,8.190789 186.628922,8.034182 186.025391,7.917235 
	C186.026962,7.956898 186.104401,7.939459 186.008942,7.667986 
	C185.607971,7.184138 185.302444,6.971763 184.990448,6.410237 
	C184.322647,4.374058 183.661316,2.687031 183.000000,1.000002 
z"/>
<path fill="#FAFDFC" opacity="1.000000" stroke="none" 
	d="
M182.531342,1.000002 
	C183.661316,2.687031 184.322647,4.374058 184.757095,6.500266 
	C184.364899,6.917667 184.199585,6.895887 183.854553,6.554219 
	C179.805588,5.137411 175.936340,4.040490 171.837097,2.573695 
	C157.487534,2.137071 143.367920,2.006471 129.248413,2.016586 
	C97.844200,2.039083 66.440048,2.132009 34.643902,2.139611 
	C31.461569,2.711231 28.671206,3.339468 25.880840,3.967705 
	C25.588022,3.196846 25.295204,2.425988 25.001194,1.327565 
	C77.354225,1.000000 129.708450,1.000000 182.531342,1.000002 
z"/>
<path fill="#ECF6FB" opacity="1.000000" stroke="none" 
	d="
M1.000000,36.468658 
	C1.436695,34.833775 1.873390,33.667549 2.563382,32.701912 
	C2.655568,53.331264 2.380436,73.759964 2.368345,94.188820 
	C2.358123,111.461693 2.652612,128.734741 2.812244,146.007706 
	C2.369473,145.735138 1.926703,145.462570 1.241967,145.095001 
	C1.000000,108.979103 1.000000,72.958214 1.000000,36.468658 
z"/>
<path fill="#FDFDFD" opacity="1.000000" stroke="none" 
	d="
M203.000000,154.531342 
	C202.621994,154.386673 202.243988,153.773346 201.792511,152.372498 
	C201.755722,138.054810 201.792404,124.524666 201.896790,110.532974 
	C202.030807,105.386086 202.097122,100.700752 202.372711,96.018875 
	C202.582001,96.022324 203.000000,96.000000 203.000000,96.000000 
	C203.000000,115.354225 203.000000,134.708450 203.000000,154.531342 
z"/>
<path fill="#E7F3FC" opacity="1.000000" stroke="none" 
	d="
M203.000000,95.531342 
	C203.000000,96.000000 202.582001,96.022324 202.295303,95.554764 
	C202.061401,85.054459 202.114182,75.021713 202.166977,64.988968 
	C202.166977,64.988968 202.583618,64.985153 202.791809,64.992577 
	C203.000000,75.020897 203.000000,85.041786 203.000000,95.531342 
z"/>
<path fill="#0179DE" opacity="1.000000" stroke="none" 
	d="
M172.067093,2.943569 
	C175.936340,4.040490 179.805588,5.137411 184.011002,6.827271 
	C184.932907,7.593293 185.518661,7.766376 186.104401,7.939459 
	C186.104401,7.939459 186.026962,7.956898 186.189117,8.192813 
	C186.949707,8.585513 187.548126,8.742299 188.146545,8.899086 
	C188.146545,8.899087 188.059647,8.926197 188.174164,9.143341 
	C188.628174,9.506331 188.967667,9.652177 189.307175,9.798021 
	C189.307175,9.798021 189.144897,9.818650 189.237854,10.031504 
	C189.684219,10.304592 190.037628,10.364827 190.391022,10.425064 
	C190.391022,10.425064 190.470490,10.484776 190.455582,10.818371 
	C191.008514,11.421664 191.576355,11.691361 192.144196,11.961058 
	C192.469742,11.959143 192.729996,12.088567 193.087982,12.829593 
	C193.553391,13.520938 193.855743,13.732020 194.158096,13.943101 
	C194.158096,13.943100 194.067642,13.941633 194.076370,14.239174 
	C194.765335,15.344942 195.445557,16.153168 196.125793,16.961395 
	C196.125793,16.961395 196.034729,16.973490 196.150787,17.178946 
	C196.584854,17.553310 196.902847,17.722219 197.220840,17.891130 
	C197.220840,17.891130 197.116150,17.897724 197.114288,18.187717 
	C197.524796,18.931070 197.937164,19.384432 198.349548,19.837791 
	C198.349548,19.837788 198.220505,19.851322 198.168427,20.214615 
	C198.744568,28.619732 199.376297,36.661282 199.999542,44.703491 
	C200.343063,49.136059 200.672272,53.569740 201.007477,58.471283 
	C201.006348,76.291306 201.005661,93.642967 201.001709,111.429321 
	C200.666687,114.470741 200.075684,117.074791 200.048553,119.684692 
	C199.937531,130.362366 199.974762,141.041962 200.032684,151.720444 
	C200.038559,152.805725 200.550156,153.888275 200.827072,154.972092 
	C200.231903,163.859955 188.433014,173.753845 178.948608,174.012238 
	C157.836807,174.587418 136.719376,174.980835 115.613228,175.709045 
	C112.690933,175.809860 109.378723,176.751236 106.998650,178.393082 
	C94.513252,187.005859 82.269920,195.969543 69.942291,204.811020 
	C65.129684,208.262650 59.917709,210.191269 53.388016,208.610580 
	C52.201679,207.837494 51.520020,207.470200 50.838360,207.102905 
	C50.838360,207.102905 50.935379,207.071686 50.839767,206.859924 
	C50.435642,206.455185 50.127129,206.262222 49.818611,206.069244 
	C49.818607,206.069260 49.919212,206.070084 49.933891,205.682831 
	C49.631283,198.908997 49.360569,192.519638 48.977783,186.136978 
	C48.775230,182.759628 48.377731,179.393951 47.812778,176.006714 
	C47.386662,175.988892 47.216011,175.987335 47.045357,175.985794 
	C47.045357,175.985794 46.999294,176.002838 46.906445,175.588882 
	C44.987942,174.787155 43.178692,174.201279 41.333580,174.048477 
	C35.623581,173.575623 29.869806,173.507446 24.194277,172.794540 
	C21.356781,172.438126 18.652475,171.021362 15.887928,170.084183 
	C15.887928,170.084183 15.976038,170.019928 15.918186,169.715836 
	C15.127828,169.062790 14.395323,168.713837 13.662819,168.364868 
	C13.662819,168.364868 13.755520,168.018646 13.690574,167.902832 
	C13.279946,167.707977 12.934266,167.628922 12.588587,167.549850 
	C12.588587,167.549850 12.557700,167.461975 12.563160,167.170929 
	C12.247094,166.825119 11.925568,166.770370 11.604041,166.715622 
	C11.604041,166.715622 11.417988,166.600372 11.462198,166.249069 
	C11.203568,165.839127 10.900727,165.780487 10.597887,165.721848 
	C10.597887,165.721848 10.415364,165.598724 10.462500,165.233490 
	C10.193231,164.757355 9.876825,164.646423 9.560420,164.535507 
	C9.560420,164.535507 9.508346,164.440247 9.614103,164.058685 
	C8.972278,163.031372 8.224694,162.385635 7.477111,161.739914 
	C7.477109,161.739914 7.383554,161.577057 7.461366,161.104660 
	C4.101159,152.118057 3.863830,143.223984 3.923638,134.181427 
	C4.105410,106.698593 3.936853,79.213631 4.014393,51.729801 
	C4.046108,40.488441 2.739028,29.101974 7.006096,18.228670 
	C11.722070,11.754269 17.598288,6.829089 25.635180,4.214323 
	C28.671206,3.339468 31.461569,2.711231 34.972061,2.386347 
	C36.679234,2.786953 37.666283,2.969208 38.653336,2.969241 
	C83.124588,2.970716 127.595840,2.956199 172.067093,2.943569 
M68.546188,184.543640 
	C68.546188,184.543640 68.596611,184.466446 69.167854,184.586227 
	C69.371521,184.285950 69.575188,183.985657 69.863678,183.887878 
	C69.863678,183.887878 69.725151,183.717545 70.229988,183.848495 
	C70.421104,183.533752 70.612213,183.219025 71.173859,182.306229 
	C72.849571,181.092743 74.522530,179.875397 76.201469,178.666397 
	C84.857368,172.433273 93.514809,166.202301 102.763626,159.905258 
	C103.107300,159.486359 103.450981,159.067459 103.852173,158.797302 
	C103.852173,158.797302 103.693001,158.787521 104.253288,158.716187 
	C104.488037,158.437378 104.722786,158.158585 104.964241,157.961502 
	C104.964241,157.961502 104.888786,157.929382 105.706337,157.961075 
	C110.256721,157.309006 114.793358,156.244675 119.360413,156.092422 
	C128.318817,155.793747 137.296539,156.132202 146.261841,155.966736 
	C155.855392,155.789703 165.453552,155.484329 175.024902,154.856613 
	C176.620483,154.751984 178.089630,152.719467 179.598618,151.725632 
	C179.598618,151.725632 179.501938,151.612274 180.173004,151.611710 
	C181.087906,150.409317 183.444183,149.205414 180.034180,147.259399 
	C180.081757,146.503937 180.129333,145.748474 180.914597,144.791351 
	C181.266098,143.277176 181.956085,141.752045 181.907455,140.250839 
	C181.742615,135.162048 181.316391,130.081741 180.994431,124.061104 
	C180.997131,97.805687 181.015793,71.550247 180.966644,45.294930 
	C180.963348,43.542568 180.445816,41.791164 180.025345,39.187202 
	C180.276810,37.628731 180.520569,36.068974 180.781189,34.512035 
	C181.518692,30.106363 180.592316,26.525774 175.749710,24.014126 
	C174.377548,23.677374 173.005722,23.047831 171.633179,23.046278 
	C125.609756,22.994181 79.586266,22.996485 33.562840,23.043119 
	C32.707954,23.043987 31.853708,23.675308 30.907007,24.373131 
	C30.907007,24.373131 30.851263,24.741179 30.189764,24.767303 
	C29.080952,25.349878 27.972139,25.932453 26.347614,26.847624 
	C25.914692,27.255289 25.481771,27.662956 24.484035,27.846504 
	C24.324049,29.447435 24.025387,31.048277 24.024376,32.649307 
	C23.999641,71.777542 24.006552,110.905792 24.112831,150.684341 
	C24.794039,151.101532 25.475246,151.518707 26.583532,152.099731 
	C26.842449,152.292282 26.997215,152.547897 27.148603,153.637512 
	C28.488026,154.416275 29.799700,155.813797 31.171286,155.875290 
	C41.504318,156.338699 51.849140,156.539291 62.001991,156.902634 
	C62.001991,156.902634 62.171291,156.787308 62.159641,157.651062 
	C62.442364,159.766602 62.938297,161.879074 62.968906,163.998260 
	C63.071789,171.122299 62.964539,178.249435 63.074242,185.373276 
	C63.085953,186.133621 62.177876,189.012589 65.346878,186.899490 
	C65.346878,186.899490 65.744095,186.893814 66.431358,186.879532 
	C66.708992,186.407104 66.986618,185.934662 67.424133,185.325211 
	C67.424133,185.325211 67.617294,185.241379 68.134544,185.477386 
	C68.241020,185.166626 68.347504,184.855850 68.546188,184.543640 
z"/>
<path fill="#1774DD" opacity="1.000000" stroke="none" 
	d="
M6.671147,18.325146 
	C2.739028,29.101974 4.046108,40.488441 4.014393,51.729801 
	C3.936853,79.213631 4.105410,106.698593 3.923638,134.181427 
	C3.863830,143.223984 4.101159,152.118057 7.440357,161.013123 
	C5.872329,156.550385 4.403122,151.706787 2.873080,146.435455 
	C2.652612,128.734741 2.358123,111.461693 2.368345,94.188820 
	C2.380436,73.759964 2.655568,53.331264 2.764689,32.445129 
	C3.920532,27.465714 5.128365,22.943666 6.671147,18.325146 
z"/>
<path fill="#066CD9" opacity="1.000000" stroke="none" 
	d="
M200.923920,154.647141 
	C200.550156,153.888275 200.038559,152.805725 200.032684,151.720444 
	C199.974762,141.041962 199.937531,130.362366 200.048553,119.684692 
	C200.075684,117.074791 200.666687,114.470741 201.207703,111.429749 
	C201.416962,110.995499 201.829086,110.994530 201.829086,110.994530 
	C201.792404,124.524666 201.755722,138.054810 201.699341,152.012573 
	C201.460007,153.067520 201.240387,153.694855 200.923920,154.647141 
z"/>
<path fill="#1774DD" opacity="1.000000" stroke="none" 
	d="
M16.065407,170.383057 
	C18.652475,171.021362 21.356781,172.438126 24.194277,172.794540 
	C29.869806,173.507446 35.623581,173.575623 41.333580,174.048477 
	C43.178692,174.201279 44.987942,174.787155 46.913185,175.565262 
	C41.212311,175.849106 35.317554,176.341614 29.640997,175.448013 
	C25.038912,174.723572 20.699051,172.333328 16.065407,170.383057 
z"/>
<path fill="#0160D8" opacity="1.000000" stroke="none" 
	d="
M48.068245,176.023010 
	C48.377731,179.393951 48.775230,182.759628 48.977783,186.136978 
	C49.360569,192.519638 49.631283,198.908997 49.918480,205.730713 
	C49.255756,205.344116 48.623119,204.522369 48.008617,202.900238 
	C48.040585,193.407562 48.054417,184.715286 48.068245,176.023010 
z"/>
<path fill="#1774DD" opacity="1.000000" stroke="none" 
	d="
M47.812775,176.006714 
	C48.054417,184.715286 48.040585,193.407562 48.003605,202.570892 
	C47.669113,197.821350 47.277153,192.603897 47.074783,187.379089 
	C46.940002,183.899353 47.075657,180.409149 47.067814,176.454712 
	C47.216011,175.987335 47.386662,175.988892 47.812775,176.006714 
z"/>
<path fill="#1774DD" opacity="1.000000" stroke="none" 
	d="
M7.606944,161.981628 
	C8.224694,162.385635 8.972278,163.031372 9.567743,164.030426 
	C8.856010,163.663605 8.296392,162.943481 7.606944,161.981628 
z"/>
<path fill="#1774DD" opacity="1.000000" stroke="none" 
	d="
M13.805298,168.624283 
	C14.395323,168.713837 15.127828,169.062790 15.893036,169.764221 
	C15.266418,169.705688 14.607098,169.294693 13.805298,168.624283 
z"/>
<path fill="#0160D8" opacity="1.000000" stroke="none" 
	d="
M50.964420,207.372040 
	C51.520020,207.470200 52.201679,207.837494 52.938332,208.520691 
	C52.359043,208.438126 51.724762,208.039658 50.964420,207.372040 
z"/>
<path fill="#1774DD" opacity="1.000000" stroke="none" 
	d="
M9.634880,164.718536 
	C9.876825,164.646423 10.193231,164.757355 10.404926,165.139664 
	C10.050822,165.302048 9.853864,165.132233 9.634880,164.718536 
z"/>
<path fill="#1774DD" opacity="1.000000" stroke="none" 
	d="
M10.675894,165.872742 
	C10.900727,165.780487 11.203568,165.839127 11.400694,166.158569 
	C11.072908,166.344482 10.892549,166.212570 10.675894,165.872742 
z"/>
<path fill="#1774DD" opacity="1.000000" stroke="none" 
	d="
M11.707348,166.881119 
	C11.925568,166.770370 12.247094,166.825119 12.516895,167.165558 
	C12.202346,167.388596 11.984173,167.253723 11.707348,166.881119 
z"/>
<path fill="#1774DD" opacity="1.000000" stroke="none" 
	d="
M12.716801,167.752991 
	C12.934266,167.628922 13.279946,167.707977 13.660852,168.079483 
	C13.361324,168.337830 13.077637,168.199219 12.716801,167.752991 
z"/>
<path fill="#0160D8" opacity="1.000000" stroke="none" 
	d="
M49.911034,206.335480 
	C50.127129,206.262222 50.435642,206.455185 50.841957,206.910828 
	C50.627655,206.982910 50.315552,206.792313 49.911034,206.335480 
z"/>
<path fill="#0A71DB" opacity="1.000000" stroke="none" 
	d="
M201.007935,58.002918 
	C200.672272,53.569740 200.343063,49.136059 199.999542,44.703491 
	C199.376297,36.661282 198.744568,28.619732 198.198853,20.157314 
	C199.510330,24.425667 201.440231,29.060265 201.808990,33.815914 
	C202.407211,41.530994 201.982025,49.325424 201.706451,57.545738 
	C201.424026,58.005123 201.007935,58.002918 201.007935,58.002918 
z"/>
<path fill="#015BD6" opacity="1.000000" stroke="none" 
	d="
M201.007477,58.471283 
	C201.007935,58.002918 201.424026,58.005123 201.632019,58.010071 
	C201.903915,60.051678 201.967834,62.088345 202.099365,64.556992 
	C202.114182,75.021713 202.061401,85.054459 202.086029,95.551315 
	C202.097122,100.700752 202.030807,105.386086 201.896790,110.532974 
	C201.829086,110.994530 201.416962,110.995499 201.210968,110.995064 
	C201.005661,93.642967 201.006348,76.291306 201.007477,58.471283 
z"/>
<path fill="#0565D9" opacity="1.000000" stroke="none" 
	d="
M196.069458,16.635895 
	C195.445557,16.153168 194.765335,15.344942 194.089630,14.195926 
	C194.733810,14.673555 195.373459,15.491975 196.069458,16.635895 
z"/>
<path fill="#0565D9" opacity="1.000000" stroke="none" 
	d="
M186.008942,7.667986 
	C185.518661,7.766376 184.932907,7.593293 184.190720,7.147159 
	C184.199585,6.895887 184.364899,6.917667 184.763580,6.849418 
	C185.302444,6.971763 185.607971,7.184138 186.008942,7.667986 
z"/>
<path fill="#0565D9" opacity="1.000000" stroke="none" 
	d="
M192.024384,11.706424 
	C191.576355,11.691361 191.008514,11.421664 190.505234,10.816095 
	C191.014725,10.804079 191.459656,11.127934 192.024384,11.706424 
z"/>
<path fill="#0565D9" opacity="1.000000" stroke="none" 
	d="
M198.285477,19.532827 
	C197.937164,19.384432 197.524796,18.931070 197.132721,18.138615 
	C197.509140,18.275635 197.865280,18.751747 198.285477,19.532827 
z"/>
<path fill="#0565D9" opacity="1.000000" stroke="none" 
	d="
M187.992844,8.623241 
	C187.548126,8.742299 186.949707,8.585513 186.187561,8.153151 
	C186.628922,8.034182 187.234039,8.190789 187.992844,8.623241 
z"/>
<path fill="#0565D9" opacity="1.000000" stroke="none" 
	d="
M197.119202,17.631952 
	C196.902847,17.722219 196.584854,17.553310 196.150833,17.133018 
	C196.362381,17.045349 196.689972,17.209061 197.119202,17.631952 
z"/>
<path fill="#0565D9" opacity="1.000000" stroke="none" 
	d="
M194.062714,13.677328 
	C193.855743,13.732020 193.553391,13.520938 193.153122,13.044772 
	C193.359253,12.990310 193.663284,13.200932 194.062714,13.677328 
z"/>
<path fill="#0565D9" opacity="1.000000" stroke="none" 
	d="
M190.254379,10.217187 
	C190.037628,10.364827 189.684219,10.304592 189.259964,9.952755 
	C189.498642,9.777205 189.808197,9.893258 190.254379,10.217187 
z"/>
<path fill="#0565D9" opacity="1.000000" stroke="none" 
	d="
M189.190994,9.542048 
	C188.967667,9.652177 188.628174,9.506331 188.173965,9.097826 
	C188.397781,8.985468 188.736298,9.135771 189.190994,9.542048 
z"/>
<path fill="#0146D2" opacity="1.000000" stroke="none" 
	d="
M171.837097,2.573695 
	C127.595840,2.956199 83.124588,2.970716 38.653336,2.969241 
	C37.666283,2.969208 36.679234,2.786953 35.364029,2.442965 
	C66.440048,2.132009 97.844200,2.039083 129.248413,2.016586 
	C143.367920,2.006471 157.487534,2.137071 171.837097,2.573695 
z"/>
<path fill="#F8F9FA" opacity="1.000000" stroke="none" 
	d="
M175.972992,24.764523 
	C180.592316,26.525774 181.518692,30.106363 180.781189,34.512035 
	C180.520569,36.068974 180.276810,37.628731 180.026962,40.074879 
	C180.072647,68.971298 180.116699,96.980049 180.085754,125.452705 
	C180.066132,132.275421 180.121521,138.634216 180.176910,144.993011 
	C180.129333,145.748474 180.081757,146.503937 180.030304,147.997391 
	C179.851593,149.694351 179.676773,150.653305 179.501953,151.612274 
	C179.501938,151.612274 179.598618,151.725632 179.282501,151.840057 
	C177.133377,152.624908 175.330536,153.764496 173.462143,153.884674 
	C165.323425,154.408081 157.167633,154.838715 149.014252,154.919327 
	C138.188843,155.026382 127.350563,154.485550 116.537445,154.833466 
	C112.625404,154.959335 108.770020,156.846115 104.888786,157.929382 
	C104.888786,157.929382 104.964241,157.961502 104.689621,157.982452 
	C104.174339,158.264786 103.933670,158.526154 103.693001,158.787521 
	C103.693001,158.787521 103.852173,158.797302 103.543854,158.795990 
	C102.880928,159.186646 102.526321,159.578613 102.171722,159.970581 
	C93.514809,166.202301 84.857368,172.433273 76.201469,178.666397 
	C74.522530,179.875397 72.849571,181.092743 70.749939,182.653885 
	C69.989189,183.125641 69.788895,183.364319 69.725151,183.717545 
	C69.725151,183.717545 69.863678,183.887878 69.580353,183.844467 
	C68.969330,183.923721 68.735863,184.145523 68.596611,184.466446 
	C68.596611,184.466446 68.546188,184.543640 68.327118,184.614746 
	C67.887138,184.820374 67.723557,185.005554 67.617294,185.241379 
	C67.617294,185.241379 67.424133,185.325211 67.110901,185.525558 
	C66.446472,186.115204 66.095284,186.504501 65.744095,186.893814 
	C65.744095,186.893814 65.346878,186.899490 64.973724,186.535126 
	C64.709435,178.523178 65.024010,170.869431 64.796501,163.231857 
	C64.731796,161.059540 63.089905,158.934189 62.171291,156.787308 
	C62.171291,156.787308 62.001991,156.902634 61.866760,156.542175 
	C54.017841,155.769791 46.291351,155.513504 38.595833,154.880600 
	C34.717518,154.561646 30.895378,153.559677 27.047834,152.866562 
	C26.997215,152.547897 26.842449,152.292282 26.303579,151.717133 
	C25.910685,150.939941 25.797743,150.545334 26.025127,149.877319 
	C26.575525,148.650986 26.969498,147.698029 26.969183,146.745193 
	C26.955923,106.668465 26.907438,66.591743 26.863327,26.515030 
	C27.972139,25.932453 29.080952,25.349878 30.801804,25.086990 
	C32.869839,25.604511 34.325718,25.974224 35.781845,25.975222 
	C80.333855,26.005783 124.885910,26.011513 169.437866,25.952208 
	C170.974884,25.950163 172.510971,25.241325 174.370346,24.909595 
	C175.119797,24.893021 175.546402,24.828772 175.972992,24.764523 
M107.821686,44.843906 
	C107.821686,44.843906 107.811363,44.678478 107.239632,44.887135 
	C107.009445,45.214134 106.779259,45.541134 105.997780,46.236301 
	C104.716087,47.920746 103.574127,49.738419 102.122528,51.260860 
	C99.409256,54.106571 96.348534,56.631573 93.738510,59.562622 
	C90.076736,63.674786 86.847038,68.173889 83.153946,72.255417 
	C78.588379,77.301201 73.737297,82.088631 68.411545,87.121788 
	C68.174660,87.670677 67.937775,88.219566 67.814102,88.841499 
	C67.814102,88.841499 67.826920,88.707390 67.298111,88.913918 
	C67.112831,89.235260 66.927559,89.556595 66.892563,89.897163 
	C66.892563,89.897163 66.869431,89.747437 66.341812,89.949966 
	C66.157043,90.270180 65.972275,90.590385 65.921211,90.924309 
	C65.921211,90.924309 65.903770,90.791046 65.381989,90.991547 
	C65.196938,91.306374 65.011887,91.621208 64.943619,91.945320 
	C64.943619,91.945320 64.930519,91.828903 64.411392,92.021545 
	C64.228424,92.332458 64.045448,92.643372 63.944420,92.952591 
	C63.944420,92.952591 63.922188,92.873703 63.429836,93.065163 
	C63.108902,93.469513 62.787968,93.873863 62.370388,94.422218 
	C62.370388,94.422218 62.280025,94.570236 61.950676,94.726189 
	C61.739944,94.870491 61.608013,95.067589 61.407345,95.429642 
	C61.407345,95.429642 61.285542,95.569336 60.953091,95.726723 
	C60.740059,95.872185 60.607079,96.071182 60.412312,96.434746 
	C60.412312,96.434746 60.291435,96.568275 59.956802,96.725945 
	C59.742500,96.872032 59.608402,97.071960 59.418816,97.439453 
	C59.418816,97.439453 59.302521,97.572952 58.947414,97.753235 
	C58.721485,97.918190 58.583691,98.138359 58.491039,98.513191 
	C58.491039,98.513191 58.389988,98.552299 58.003479,98.731110 
	C57.752125,98.896881 57.600632,99.128113 57.492977,99.518761 
	C57.492977,99.518761 57.390083,99.555908 57.006542,99.723648 
	C56.763542,99.888451 56.610420,100.114243 56.395145,100.472626 
	C56.395145,100.472626 56.257500,100.569031 56.049088,100.702454 
	C56.049088,100.702454 55.996708,100.946869 55.519436,101.130547 
	C55.194611,101.516624 54.869785,101.902702 54.380981,102.425896 
	C54.380981,102.425896 54.279160,102.613846 53.746300,102.953079 
	C52.844547,103.980400 51.942795,105.007729 50.902550,106.192825 
	C65.609222,106.192825 79.777420,106.192825 94.111839,106.192825 
	C92.420456,114.476280 90.736603,122.722878 88.807320,131.579132 
	C88.855392,132.013596 88.903465,132.448074 88.294083,133.261826 
	C86.488754,140.114655 84.683426,146.967468 82.878105,153.820297 
	C83.124733,153.897385 83.371361,153.974472 83.617996,154.051559 
	C85.575340,151.605133 87.532692,149.158722 89.602043,146.587219 
	C89.602043,146.587219 89.716263,146.464142 90.159920,146.142654 
	C90.588158,145.556961 91.016388,144.971268 91.431297,144.137802 
	C91.431297,144.137802 91.393318,144.383011 91.932602,144.088318 
	C92.011879,143.719650 92.091156,143.350967 92.503517,142.425415 
	C97.658371,137.335907 102.923744,132.352264 107.932411,127.122765 
	C111.801712,123.082878 115.262207,118.654175 119.066475,114.548470 
	C122.292595,111.066742 125.750618,107.799881 129.646362,104.142754 
	C129.852280,103.797516 130.058182,103.452286 130.092453,103.095428 
	C130.092453,103.095428 130.118607,103.265465 130.688339,103.063316 
	C130.925171,102.744530 131.162003,102.425735 131.771408,102.009323 
	C132.005981,101.848267 132.112976,101.625839 132.634933,101.065979 
	C132.865570,100.738121 133.096191,100.410263 133.878372,99.828705 
	C134.939774,98.620453 136.001175,97.412201 137.573181,95.978302 
	C137.763062,95.666801 137.952942,95.355301 138.038376,95.037468 
	C138.038376,95.037468 138.047333,95.141701 138.571213,94.950966 
	C138.777817,94.650269 138.984436,94.349564 139.707962,93.858841 
	C140.155273,93.293541 140.602600,92.728241 141.602188,91.913231 
	C142.237595,91.176773 142.873001,90.440308 143.598312,89.569710 
	C143.598312,89.569710 143.693390,89.439186 144.037750,89.273804 
	C144.257599,89.121727 144.396759,88.915245 144.566849,88.543983 
	C144.566849,88.543983 144.680252,88.435463 145.036301,88.252167 
	C145.268860,88.092102 145.409302,87.872963 145.534485,87.516838 
	C145.534485,87.516838 145.643433,87.506561 146.094742,87.240974 
	C146.416077,86.837166 146.737427,86.433350 147.001694,86.003181 
	C147.001694,86.003181 147.029068,86.059761 147.584106,85.825951 
	C148.079453,85.207420 148.574814,84.588882 149.695328,83.683128 
	C150.855499,82.437950 152.015671,81.192772 154.167770,78.882988 
	C145.030655,78.882988 137.402451,78.882988 128.882690,78.710983 
	C122.270248,78.854736 115.657806,78.998482 108.656357,78.955620 
	C108.656357,78.955620 108.225639,78.930534 108.292137,78.204933 
	C112.888863,62.304703 117.485588,46.404469 122.082321,30.504238 
	C121.827377,30.369648 121.572433,30.235056 121.317490,30.100464 
	C119.416718,32.136055 117.515953,34.171646 115.390465,36.341736 
	C115.390465,36.341736 115.270004,36.574284 114.958069,36.733212 
	C114.761215,36.874657 114.627998,37.061493 114.394455,37.413086 
	C114.394455,37.413086 114.273499,37.575897 113.957626,37.744255 
	C113.759148,37.891613 113.623360,38.083378 113.417427,38.436249 
	C113.417427,38.436249 113.303078,38.571114 112.962051,38.766644 
	C112.746544,38.932983 112.603172,39.147545 112.492371,39.511440 
	C112.492371,39.511440 112.392708,39.554558 112.013046,39.759884 
	C111.772148,39.938560 111.613297,40.172874 111.507690,40.549015 
	C111.507690,40.549015 111.418655,40.530777 110.936523,40.835484 
	C110.480927,41.438923 110.025337,42.042362 109.699913,42.751923 
	C109.699913,42.751923 109.644211,42.593483 109.154297,42.796112 
	C108.967613,43.087582 108.780937,43.379047 108.750252,43.761921 
	C108.750252,43.761921 108.654366,43.608639 108.160728,43.839386 
	C107.995613,44.155834 107.830505,44.472286 107.821686,44.843906 
z"/>
<path fill="#FDFDFD" opacity="1.000000" stroke="none" 
	d="
M174.047485,24.861919 
	C172.510971,25.241325 170.974884,25.950163 169.437866,25.952208 
	C124.885910,26.011513 80.333855,26.005783 35.781845,25.975222 
	C34.325718,25.974224 32.869839,25.604511 31.132553,25.073927 
	C30.851263,24.741179 30.907007,24.373131 31.422276,24.185020 
	C77.611221,23.997200 123.284904,23.988207 168.958542,24.034225 
	C170.655136,24.035936 172.351181,24.573874 174.047485,24.861919 
z"/>
<path fill="#FDFDFD" opacity="1.000000" stroke="none" 
	d="
M26.605471,26.681328 
	C26.907438,66.591743 26.955923,106.668465 26.969183,146.745193 
	C26.969498,147.698029 26.575525,148.650986 25.855190,149.846252 
	C25.344925,150.088623 25.012163,149.995697 25.008049,149.527313 
	C25.018908,108.729507 25.033878,68.400063 25.048851,28.070621 
	C25.481771,27.662956 25.914692,27.255289 26.605471,26.681328 
z"/>
<path fill="#0245D3" opacity="1.000000" stroke="none" 
	d="
M174.370346,24.909595 
	C172.351181,24.573874 170.655136,24.035936 168.958542,24.034225 
	C123.284904,23.988207 77.611221,23.997200 31.468355,24.004690 
	C31.853708,23.675308 32.707954,23.043987 33.562840,23.043119 
	C79.586266,22.996485 125.609756,22.994181 171.633179,23.046278 
	C173.005722,23.047831 174.377548,23.677374 175.861359,24.389324 
	C175.546402,24.828772 175.119797,24.893021 174.370346,24.909595 
z"/>
<path fill="#0052D3" opacity="1.000000" stroke="none" 
	d="
M24.766443,27.958565 
	C25.033878,68.400063 25.018908,108.729507 24.757093,149.540436 
	C24.342766,150.025970 24.175278,150.030014 24.007792,150.034042 
	C24.006552,110.905792 23.999641,71.777542 24.024376,32.649307 
	C24.025387,31.048277 24.324049,29.447435 24.766443,27.958565 
z"/>
<path fill="#0964D8" opacity="1.000000" stroke="none" 
	d="
M105.297562,157.945221 
	C108.770020,156.846115 112.625404,154.959335 116.537445,154.833466 
	C127.350563,154.485550 138.188843,155.026382 149.014252,154.919327 
	C157.167633,154.838715 165.323425,154.408081 173.462143,153.884674 
	C175.330536,153.764496 177.133377,152.624908 179.291794,151.766144 
	C178.089630,152.719467 176.620483,154.751984 175.024902,154.856613 
	C165.453552,155.484329 155.855392,155.789703 146.261841,155.966736 
	C137.296539,156.132202 128.318817,155.793747 119.360413,156.092422 
	C114.793358,156.244675 110.256721,157.309006 105.297562,157.945221 
z"/>
<path fill="#0056D3" opacity="1.000000" stroke="none" 
	d="
M180.160767,124.988792 
	C180.116699,96.980049 180.072647,68.971298 180.098022,40.500938 
	C180.445816,41.791164 180.963348,43.542568 180.966644,45.294930 
	C181.015793,71.550247 180.997131,97.805687 180.784958,124.528580 
	C180.575485,124.996063 180.160767,124.988792 180.160767,124.988792 
z"/>
<path fill="#1473DC" opacity="1.000000" stroke="none" 
	d="
M62.165466,157.219177 
	C63.089905,158.934189 64.731796,161.059540 64.796501,163.231857 
	C65.024010,170.869431 64.709435,178.523178 64.790604,186.612061 
	C62.177876,189.012589 63.085953,186.133621 63.074242,185.373276 
	C62.964539,178.249435 63.071789,171.122299 62.968906,163.998260 
	C62.938297,161.879074 62.442364,159.766602 62.165466,157.219177 
z"/>
<path fill="#1473DC" opacity="1.000000" stroke="none" 
	d="
M27.098219,153.252045 
	C30.895378,153.559677 34.717518,154.561646 38.595833,154.880600 
	C46.291351,155.513504 54.017841,155.769791 61.960907,156.501862 
	C51.849140,156.539291 41.504318,156.338699 31.171286,155.875290 
	C29.799700,155.813797 28.488026,154.416275 27.098219,153.252045 
z"/>
<path fill="#0964D8" opacity="1.000000" stroke="none" 
	d="
M180.085754,125.452705 
	C180.160767,124.988792 180.575485,124.996063 180.782745,124.997124 
	C181.316391,130.081741 181.742615,135.162048 181.907455,140.250839 
	C181.956085,141.752045 181.266098,143.277176 180.545746,144.892181 
	C180.121521,138.634216 180.066132,132.275421 180.085754,125.452705 
z"/>
<path fill="#0964D8" opacity="1.000000" stroke="none" 
	d="
M179.837479,151.612000 
	C179.676773,150.653305 179.851593,149.694351 180.097839,148.371384 
	C183.444183,149.205414 181.087906,150.409317 179.837479,151.612000 
z"/>
<path fill="#1473DC" opacity="1.000000" stroke="none" 
	d="
M24.060310,150.359192 
	C24.175278,150.030014 24.342766,150.025970 24.761208,150.008804 
	C25.012163,149.995697 25.344925,150.088623 25.514862,150.119675 
	C25.797743,150.545334 25.910685,150.939941 26.090038,151.635223 
	C25.475246,151.518707 24.794039,151.101532 24.060310,150.359192 
z"/>
<path fill="#0964D8" opacity="1.000000" stroke="none" 
	d="
M102.467674,159.937927 
	C102.526321,159.578613 102.880928,159.186646 103.515091,158.721619 
	C103.450981,159.067459 103.107300,159.486359 102.467674,159.937927 
z"/>
<path fill="#1473DC" opacity="1.000000" stroke="none" 
	d="
M69.977570,183.783020 
	C69.788895,183.364319 69.989189,183.125641 70.564674,182.952911 
	C70.612213,183.219025 70.421104,183.533752 69.977570,183.783020 
z"/>
<path fill="#1473DC" opacity="1.000000" stroke="none" 
	d="
M66.087723,186.886673 
	C66.095284,186.504501 66.446472,186.115204 67.030960,185.594070 
	C66.986618,185.934662 66.708992,186.407104 66.087723,186.886673 
z"/>
<path fill="#0964D8" opacity="1.000000" stroke="none" 
	d="
M103.973145,158.751862 
	C103.933670,158.526154 104.174339,158.264786 104.686264,157.941589 
	C104.722786,158.158585 104.488037,158.437378 103.973145,158.751862 
z"/>
<path fill="#1473DC" opacity="1.000000" stroke="none" 
	d="
M68.882233,184.526337 
	C68.735863,184.145523 68.969330,183.923721 69.537933,183.743225 
	C69.575188,183.985657 69.371521,184.285950 68.882233,184.526337 
z"/>
<path fill="#1473DC" opacity="1.000000" stroke="none" 
	d="
M67.875916,185.359375 
	C67.723557,185.005554 67.887138,184.820374 68.281021,184.615479 
	C68.347504,184.855850 68.241020,185.166626 67.875916,185.359375 
z"/>
<path fill="#0279DE" opacity="1.000000" stroke="none" 
	d="
M137.062576,96.203949 
	C136.001175,97.412201 134.939774,98.620453 133.307785,100.064430 
	C132.522278,100.647453 132.307343,100.994751 132.092407,101.342041 
	C132.112976,101.625839 132.005981,101.848267 131.285095,102.139786 
	C130.572067,102.601982 130.345337,102.933723 130.118607,103.265465 
	C130.118607,103.265465 130.092453,103.095428 129.881897,103.217010 
	C129.482895,103.705048 129.294464,104.071495 129.106018,104.437943 
	C125.750618,107.799881 122.292595,111.066742 119.066475,114.548470 
	C115.262207,118.654175 111.801712,123.082878 107.932411,127.122765 
	C102.923744,132.352264 97.658371,137.335907 92.077354,142.849945 
	C91.565239,143.643982 91.479279,144.013504 91.393318,144.383011 
	C91.393318,144.383011 91.431297,144.137802 91.082260,144.239944 
	C90.394241,145.049438 90.055252,145.756790 89.716263,146.464142 
	C89.716263,146.464142 89.602043,146.587219 89.240829,146.510498 
	C88.123177,146.718262 87.366730,147.002762 86.591965,147.294159 
	C87.383514,142.459625 88.167526,137.671082 88.951546,132.882538 
	C88.903465,132.448074 88.855392,132.013596 89.206589,131.053802 
	C91.380920,123.866882 93.214828,117.220276 94.913872,110.539368 
	C96.491180,104.337166 96.198486,103.892570 89.909431,104.029060 
	C79.836548,104.247658 69.769081,104.787437 59.696461,104.880394 
	C57.897820,104.896988 56.085281,103.407768 54.279160,102.613846 
	C54.279160,102.613846 54.380981,102.425896 54.719749,102.501923 
	C55.374096,102.384918 55.689678,102.191887 56.224396,101.811562 
	C56.470516,101.498665 56.542789,101.361862 56.515057,101.249802 
	C56.457188,101.015953 56.346493,100.795174 56.257500,100.569031 
	C56.257500,100.569031 56.395145,100.472626 56.769615,100.525742 
	C57.226086,100.237877 57.308086,99.896896 57.390083,99.555908 
	C57.390083,99.555908 57.492977,99.518761 57.822254,99.551376 
	C58.231018,99.240097 58.310501,98.896194 58.389988,98.552299 
	C58.389988,98.552299 58.491039,98.513191 58.811356,98.548538 
	C59.188625,98.246902 59.245571,97.909927 59.302521,97.572952 
	C59.302521,97.572952 59.418816,97.439453 59.772789,97.499054 
	C60.181648,97.228523 60.236542,96.898399 60.291435,96.568275 
	C60.291435,96.568275 60.412312,96.434746 60.768944,96.496353 
	C61.178894,96.228416 61.232220,95.898872 61.285542,95.569336 
	C61.285542,95.569336 61.407345,95.429642 61.765648,95.492783 
	C62.175972,95.227364 62.228001,94.898796 62.280025,94.570236 
	C62.280025,94.570236 62.370388,94.422218 62.736614,94.470207 
	C63.375957,93.970032 63.649071,93.421867 63.922188,92.873703 
	C63.922188,92.873703 63.944420,92.952591 64.157211,92.848267 
	C64.556847,92.438927 64.743683,92.133911 64.930511,91.828903 
	C64.930519,91.828903 64.943619,91.945320 65.147003,91.839218 
	C65.534851,91.419090 65.719315,91.105064 65.903770,90.791046 
	C65.903770,90.791046 65.921211,90.924309 66.125099,90.821686 
	C66.509132,90.395187 66.689278,90.071312 66.869431,89.747437 
	C66.869431,89.747437 66.892563,89.897163 67.097878,89.801468 
	C67.477768,89.372978 67.652344,89.040184 67.826920,88.707390 
	C67.826920,88.707390 67.814102,88.841499 68.069382,88.850693 
	C68.552963,88.235817 68.781273,87.611748 69.009575,86.987686 
	C73.737297,82.088631 78.588379,77.301201 83.153946,72.255417 
	C86.847038,68.173889 90.076736,63.674786 93.738510,59.562622 
	C96.348534,56.631573 99.409256,54.106571 102.122528,51.260860 
	C103.574127,49.738419 104.716087,47.920746 106.581985,45.976395 
	C107.381241,45.370483 107.596306,45.024483 107.811363,44.678478 
	C107.811363,44.678478 107.821686,44.843906 108.038353,44.754124 
	C108.388138,44.312439 108.521248,43.960541 108.654366,43.608639 
	C108.654366,43.608639 108.750252,43.761921 108.978539,43.699959 
	C109.352623,43.289829 109.498421,42.941658 109.644211,42.593483 
	C109.644211,42.593483 109.699913,42.751923 109.988785,42.710258 
	C110.657990,41.955986 111.038322,41.243382 111.418655,40.530777 
	C111.418655,40.530777 111.507690,40.549015 111.824692,40.566021 
	C112.225372,40.240204 112.309036,39.897381 112.392708,39.554558 
	C112.392708,39.554558 112.492371,39.511440 112.806381,39.540276 
	C113.181290,39.236446 113.242180,38.903778 113.303078,38.571114 
	C113.303078,38.571114 113.417427,38.436249 113.762985,38.488178 
	C114.163521,38.218704 114.218506,37.897301 114.273499,37.575897 
	C114.273499,37.575897 114.394455,37.413086 114.751335,37.472603 
	C115.162148,37.212845 115.216080,36.893566 115.270004,36.574284 
	C115.270004,36.574284 115.390465,36.341736 115.850937,36.543575 
	C116.656387,38.299164 117.612686,40.015343 117.249817,41.381012 
	C114.297310,52.492973 111.052422,63.526962 108.034134,74.622116 
	C107.674767,75.943123 108.141708,77.488930 108.225639,78.930534 
	C108.225639,78.930534 108.656357,78.955620 109.165230,79.313126 
	C119.998779,79.670631 130.323456,79.670631 140.648132,79.670631 
	C140.647614,79.408081 140.647095,79.145538 140.646591,78.882988 
	C137.022476,78.882988 133.398346,78.882988 129.774231,78.882988 
	C137.402451,78.882988 145.030655,78.882988 154.167770,78.882988 
	C152.015671,81.192772 150.855499,82.437950 149.050491,83.875969 
	C147.946793,84.732460 147.487930,85.396111 147.029068,86.059769 
	C147.029068,86.059761 147.001694,86.003181 146.702042,86.044304 
	C146.149399,86.559135 145.896408,87.032845 145.643433,87.506561 
	C145.643433,87.506561 145.534485,87.516838 145.198105,87.468384 
	C144.801239,87.758438 144.740753,88.096954 144.680267,88.435463 
	C144.680252,88.435463 144.566849,88.543983 144.220215,88.490707 
	C143.813522,88.771355 143.753448,89.105270 143.693390,89.439186 
	C143.693390,89.439186 143.598312,89.569710 143.207947,89.505219 
	C142.228348,90.348137 141.639130,91.255539 141.049911,92.162949 
	C140.602600,92.728241 140.155273,93.293541 139.189987,94.053696 
	C138.463776,94.546265 138.255554,94.843979 138.047333,95.141701 
	C138.047333,95.141701 138.038376,95.037468 137.834854,95.154037 
	C137.441742,95.581718 137.252167,95.892838 137.062576,96.203949 
z"/>
<path fill="#0B69DA" opacity="1.000000" stroke="none" 
	d="
M54.012730,102.783463 
	C56.085281,103.407768 57.897820,104.896988 59.696461,104.880394 
	C69.769081,104.787437 79.836548,104.247658 89.909431,104.029060 
	C96.198486,103.892570 96.491180,104.337166 94.913872,110.539368 
	C93.214828,117.220276 91.380920,123.866882 89.329300,130.748962 
	C90.736603,122.722878 92.420456,114.476280 94.111839,106.192825 
	C79.777420,106.192825 65.609222,106.192825 50.902550,106.192825 
	C51.942795,105.007729 52.844547,103.980400 54.012730,102.783463 
z"/>
<path fill="#0C6BDB" opacity="1.000000" stroke="none" 
	d="
M108.258888,78.567734 
	C108.141708,77.488930 107.674767,75.943123 108.034134,74.622116 
	C111.052422,63.526962 114.297310,52.492973 117.249817,41.381012 
	C117.612686,40.015343 116.656387,38.299164 115.963287,36.476326 
	C117.515953,34.171646 119.416718,32.136055 121.317490,30.100464 
	C121.572433,30.235056 121.827377,30.369648 122.082321,30.504238 
	C117.485588,46.404469 112.888863,62.304703 108.258888,78.567734 
z"/>
<path fill="#0E6ADA" opacity="1.000000" stroke="none" 
	d="
M88.622818,133.072174 
	C88.167526,137.671082 87.383514,142.459625 86.591965,147.294159 
	C87.366730,147.002762 88.123177,146.718262 89.184830,146.573029 
	C87.532692,149.158722 85.575340,151.605133 83.617996,154.051559 
	C83.371361,153.974472 83.124733,153.897385 82.878105,153.820297 
	C84.683426,146.967468 86.488754,140.114655 88.622818,133.072174 
z"/>
<path fill="#005DD6" opacity="1.000000" stroke="none" 
	d="
M129.328461,78.796982 
	C133.398346,78.882988 137.022476,78.882988 140.646591,78.882988 
	C140.647095,79.145538 140.647614,79.408081 140.648132,79.670631 
	C130.323456,79.670631 119.998779,79.670631 109.359734,79.406433 
	C115.657806,78.998482 122.270248,78.854736 129.328461,78.796982 
z"/>
<path fill="#0565D9" opacity="1.000000" stroke="none" 
	d="
M68.710556,87.054733 
	C68.781273,87.611748 68.552963,88.235817 68.012779,88.814163 
	C67.937775,88.219566 68.174660,87.670677 68.710556,87.054733 
z"/>
<path fill="#0565D9" opacity="1.000000" stroke="none" 
	d="
M141.326050,92.038086 
	C141.639130,91.255539 142.228348,90.348137 143.162994,89.572296 
	C142.873001,90.440308 142.237595,91.176773 141.326050,92.038086 
z"/>
<path fill="#0E6ADA" opacity="1.000000" stroke="none" 
	d="
M89.938095,146.303406 
	C90.055252,145.756790 90.394241,145.049438 91.088928,144.363831 
	C91.016388,144.971268 90.588158,145.556961 89.938095,146.303406 
z"/>
<path fill="#0C6BDB" opacity="1.000000" stroke="none" 
	d="
M111.177589,40.683128 
	C111.038322,41.243382 110.657990,41.955986 109.923698,42.657196 
	C110.025337,42.042362 110.480927,41.438923 111.177589,40.683128 
z"/>
<path fill="#0565D9" opacity="1.000000" stroke="none" 
	d="
M147.306580,85.942856 
	C147.487930,85.396111 147.946793,84.732460 148.737915,84.019577 
	C148.574814,84.588882 148.079453,85.207420 147.306580,85.942856 
z"/>
<path fill="#0B69DA" opacity="1.000000" stroke="none" 
	d="
M56.005264,101.998856 
	C55.689678,102.191887 55.374096,102.384918 54.801735,102.433365 
	C54.869785,101.902702 55.194611,101.516624 55.761787,101.301697 
	C56.004517,101.648186 56.004890,101.823524 56.005264,101.998856 
z"/>
<path fill="#0565D9" opacity="1.000000" stroke="none" 
	d="
M145.869080,87.373764 
	C145.896408,87.032845 146.149399,86.559135 146.730576,86.057480 
	C146.737427,86.433350 146.416077,86.837166 145.869080,87.373764 
z"/>
<path fill="#0565D9" opacity="1.000000" stroke="none" 
	d="
M63.676010,92.969437 
	C63.649071,93.421867 63.375957,93.970032 62.784935,94.398209 
	C62.787968,93.873863 63.108902,93.469513 63.676010,92.969437 
z"/>
<path fill="#0C6BDB" opacity="1.000000" stroke="none" 
	d="
M115.114044,36.653748 
	C115.216080,36.893566 115.162148,37.212845 114.833328,37.412926 
	C114.627998,37.061493 114.761215,36.874657 115.114044,36.653748 
z"/>
<path fill="#0C6BDB" opacity="1.000000" stroke="none" 
	d="
M114.115555,37.660076 
	C114.218506,37.897301 114.163521,38.218704 113.829399,38.429829 
	C113.623360,38.083378 113.759148,37.891613 114.115555,37.660076 
z"/>
<path fill="#0C6BDB" opacity="1.000000" stroke="none" 
	d="
M109.399254,42.694798 
	C109.498421,42.941658 109.352623,43.289829 108.900543,43.654259 
	C108.780937,43.379047 108.967613,43.087582 109.399254,42.694798 
z"/>
<path fill="#0C6BDB" opacity="1.000000" stroke="none" 
	d="
M113.132568,38.668877 
	C113.242180,38.903778 113.181290,39.236446 112.826172,39.489716 
	C112.603172,39.147545 112.746544,38.932983 113.132568,38.668877 
z"/>
<path fill="#0565D9" opacity="1.000000" stroke="none" 
	d="
M59.124966,97.663094 
	C59.245571,97.909927 59.188625,98.246902 58.832855,98.498802 
	C58.583691,98.138359 58.721485,97.918190 59.124966,97.663094 
z"/>
<path fill="#0565D9" opacity="1.000000" stroke="none" 
	d="
M143.865570,89.356491 
	C143.753448,89.105270 143.813522,88.771355 144.164413,88.545891 
	C144.396759,88.915245 144.257599,89.121727 143.865570,89.356491 
z"/>
<path fill="#0565D9" opacity="1.000000" stroke="none" 
	d="
M66.605621,89.848701 
	C66.689278,90.071312 66.509132,90.395187 66.058243,90.814835 
	C65.972275,90.590385 66.157043,90.270180 66.605621,89.848701 
z"/>
<path fill="#0565D9" opacity="1.000000" stroke="none" 
	d="
M65.642883,90.891296 
	C65.719315,91.105064 65.534851,91.419090 65.088615,91.834572 
	C65.011887,91.621208 65.196938,91.306374 65.642883,90.891296 
z"/>
<path fill="#0565D9" opacity="1.000000" stroke="none" 
	d="
M64.670952,91.925224 
	C64.743683,92.133911 64.556847,92.438927 64.116241,92.849113 
	C64.045448,92.643372 64.228424,92.332458 64.670952,91.925224 
z"/>
<path fill="#0565D9" opacity="1.000000" stroke="none" 
	d="
M138.309265,95.046333 
	C138.255554,94.843979 138.463776,94.546265 138.931519,94.148712 
	C138.984436,94.349564 138.777817,94.650269 138.309265,95.046333 
z"/>
<path fill="#0565D9" opacity="1.000000" stroke="none" 
	d="
M62.115349,94.648209 
	C62.228001,94.898796 62.175972,95.227364 61.839417,95.436699 
	C61.608013,95.067589 61.739944,94.870491 62.115349,94.648209 
z"/>
<path fill="#0565D9" opacity="1.000000" stroke="none" 
	d="
M137.317871,96.091125 
	C137.252167,95.892838 137.441742,95.581718 137.887070,95.157196 
	C137.952942,95.355301 137.763062,95.666801 137.317871,96.091125 
z"/>
<path fill="#0565D9" opacity="1.000000" stroke="none" 
	d="
M61.119316,95.648026 
	C61.232220,95.898872 61.178894,96.228416 60.839859,96.440842 
	C60.607079,96.071182 60.740059,95.872185 61.119316,95.648026 
z"/>
<path fill="#0565D9" opacity="1.000000" stroke="none" 
	d="
M144.858276,88.343811 
	C144.740753,88.096954 144.801239,87.758438 145.159698,87.507339 
	C145.409302,87.872963 145.268860,88.092102 144.858276,88.343811 
z"/>
<path fill="#0565D9" opacity="1.000000" stroke="none" 
	d="
M60.124115,96.647110 
	C60.236542,96.898399 60.181648,97.228523 59.840637,97.442184 
	C59.608402,97.071960 59.742500,96.872032 60.124115,96.647110 
z"/>
<path fill="#0C6BDB" opacity="1.000000" stroke="none" 
	d="
M112.202881,39.657219 
	C112.309036,39.897381 112.225372,40.240204 111.839096,40.522923 
	C111.613297,40.172874 111.772148,39.938560 112.202881,39.657219 
z"/>
<path fill="#0565D9" opacity="1.000000" stroke="none" 
	d="
M58.196732,98.641708 
	C58.310501,98.896194 58.231018,99.240097 57.850266,99.504395 
	C57.600632,99.128113 57.752125,98.896881 58.196732,98.641708 
z"/>
<path fill="#0565D9" opacity="1.000000" stroke="none" 
	d="
M57.198311,99.639778 
	C57.308086,99.896896 57.226086,100.237877 56.845627,100.489944 
	C56.610420,100.114243 56.763542,99.888451 57.198311,99.639778 
z"/>
<path fill="#0565D9" opacity="1.000000" stroke="none" 
	d="
M132.363678,101.204010 
	C132.307343,100.994751 132.522278,100.647453 133.032013,100.191277 
	C133.096191,100.410263 132.865570,100.738121 132.363678,101.204010 
z"/>
<path fill="#0565D9" opacity="1.000000" stroke="none" 
	d="
M56.224396,101.811562 
	C56.004890,101.823524 56.004517,101.648186 56.000423,101.209854 
	C55.996708,100.946869 56.049088,100.702454 56.153290,100.635742 
	C56.346493,100.795174 56.457188,101.015953 56.515057,101.249802 
	C56.542789,101.361862 56.470516,101.498665 56.224396,101.811562 
z"/>
<path fill="#0565D9" opacity="1.000000" stroke="none" 
	d="
M130.403473,103.164391 
	C130.345337,102.933723 130.572067,102.601982 131.098816,102.188591 
	C131.162003,102.425735 130.925171,102.744530 130.403473,103.164391 
z"/>
<path fill="#0565D9" opacity="1.000000" stroke="none" 
	d="
M129.376190,104.290344 
	C129.294464,104.071495 129.482895,103.705048 129.967712,103.222824 
	C130.058182,103.452286 129.852280,103.797516 129.376190,104.290344 
z"/>
<path fill="#0C6BDB" opacity="1.000000" stroke="none" 
	d="
M107.525497,44.782806 
	C107.596306,45.024483 107.381241,45.370483 106.857628,45.792309 
	C106.779259,45.541134 107.009445,45.214134 107.525497,44.782806 
z"/>
<path fill="#0C6BDB" opacity="1.000000" stroke="none" 
	d="
M108.407547,43.724014 
	C108.521248,43.960541 108.388138,44.312439 107.960205,44.726540 
	C107.830505,44.472286 107.995613,44.155834 108.407547,43.724014 
z"/>
<path fill="#0E6ADA" opacity="1.000000" stroke="none" 
	d="
M91.662964,144.235657 
	C91.479279,144.013504 91.565239,143.643982 91.910812,143.128387 
	C92.091156,143.350967 92.011879,143.719650 91.662964,144.235657 
z"/>
<path fill="#0565D9" opacity="1.000000" stroke="none" 
	d="
M67.562515,88.810654 
	C67.652344,89.040184 67.477768,89.372978 67.022736,89.791855 
	C66.927559,89.556595 67.112831,89.235260 67.562515,88.810654 
z"/>
</svg>